<svg xmlns="http://www.w3.org/2000/svg" xmlns:xlink="http://www.w3.org/1999/xlink" viewBox="0 0 1920 1080"><defs><style>.cls-1{isolation:isolate;}.cls-2{fill:#fff;}.cls-3{fill:url(#radial-gradient);}.cls-4,.cls-6,.cls-7{fill:#a1896d;}.cls-4{opacity:0.1;}.cls-4,.cls-5{mix-blend-mode:multiply;}.cls-5{opacity:0.3;}.cls-7{opacity:0.2;}</style><radialGradient id="radial-gradient" cx="749.58" cy="23.04" r="976.91" gradientTransform="matrix(0, 1, -2.06, 0, 1518.78, -662.64)" gradientUnits="userSpaceOnUse"><stop offset="0" stop-color="#fdde64"/><stop offset="0.3" stop-color="#f9b567"/><stop offset="0.97" stop-color="#ef4d6f"/><stop offset="1" stop-color="#ef486f"/></radialGradient></defs><title>background</title><g class="cls-1"><g id="Layer_1" data-name="Layer 1"><polygon class="cls-2" points="542.04 75.08 534.32 75.08 534.32 93.25 527.32 93.25 527.32 75.08 519.6 75.08 519 75.08 519 68.71 542.64 68.71 542.64 75.08 542.04 75.08"/><polygon class="cls-2" points="599.94 111.85 592.21 111.85 592.21 130.03 585.21 130.03 585.21 111.85 577.49 111.85 576.89 111.85 576.89 105.48 600.53 105.48 600.53 111.85 599.94 111.85"/><polygon class="cls-2" points="550.08 93.25 550.08 68.71 569.56 68.71 569.56 74.85 556.57 74.85 556.57 78.06 565.37 78.06 565.37 83.56 556.57 83.56 556.57 87.07 569.56 87.07 569.56 93.25 550.08 93.25"/><polygon class="cls-2" points="550.08 111.71 550.08 87.17 569.56 87.17 569.56 93.31 556.57 93.31 556.57 96.51 565.37 96.51 565.37 102.02 556.57 102.02 556.57 105.53 569.56 105.53 569.56 111.71 550.08 111.71"/><polygon class="cls-2" points="550.08 130.03 550.08 105.48 569.56 105.48 569.56 111.63 556.57 111.63 556.57 114.83 565.37 114.83 565.37 120.34 556.57 120.34 556.57 123.84 569.56 123.84 569.56 130.03 550.08 130.03"/><path class="cls-2" d="M73.31,25.25l-3.87-7.49H65.08v7.49H57.89V0.71H70.7A6.86,6.86,0,0,1,72.47,1a9.33,9.33,0,0,1,1.77.67,8.4,8.4,0,0,1,1.58,1A6.7,6.7,0,0,1,77.07,4a7.62,7.62,0,0,1,1,2,7.43,7.43,0,0,1,.34,2.2,7.23,7.23,0,0,1-.82,3.37,7.87,7.87,0,0,1-2.24,2.66l5.74,11H73.31ZM68.69,6.44H65.08v4.69h3.61a2.32,2.32,0,0,0,1.68-.69,2.26,2.26,0,0,0,.71-1.67,2.2,2.2,0,0,0-.71-1.65,2.35,2.35,0,0,0-1.68-.68" transform="translate(519 68)"/><path class="cls-2" d="M129.43,26a12.7,12.7,0,0,1-5.06-1,13.3,13.3,0,0,1-4.15-2.78,12.92,12.92,0,0,1-2.79-4.13,12.67,12.67,0,0,1-1-5.06,12.55,12.55,0,0,1,1-5A13.09,13.09,0,0,1,124.36,1a13,13,0,0,1,10.13,0,13.3,13.3,0,0,1,4.15,2.77,12.92,12.92,0,0,1,2.79,4.13,12.68,12.68,0,0,1,1,5.07,12.67,12.67,0,0,1-1,5.06,12.92,12.92,0,0,1-2.79,4.13A13.3,13.3,0,0,1,134.49,25a12.7,12.7,0,0,1-5.07,1m0-19.26a5.6,5.6,0,0,0-2.36.5,6,6,0,0,0-1.9,1.36,6.45,6.45,0,0,0-1.26,2,6.4,6.4,0,0,0,0,4.79,6.7,6.7,0,0,0,1.26,2,5.81,5.81,0,0,0,1.9,1.37,5.8,5.8,0,0,0,4.71,0,5.83,5.83,0,0,0,1.9-1.37,6.61,6.61,0,0,0,1.24-6.8,6.24,6.24,0,0,0-1.24-2,6,6,0,0,0-1.9-1.36,5.6,5.6,0,0,0-2.36-.5" transform="translate(519 68)"/><polygon class="cls-2" points="535.75 130.03 535.75 118.56 531.98 125.93 530.01 125.93 525.93 118.56 525.93 130.03 519 130.03 519 105.48 525.18 105.48 530.98 114.87 536.46 105.48 542.64 105.48 542.64 130.03 535.75 130.03"/><polygon class="cls-2" points="622.65 93.27 622.65 81.8 618.88 89.17 616.91 89.17 612.83 81.8 612.83 93.27 605.9 93.27 605.9 68.73 612.09 68.73 617.88 78.11 623.36 68.73 629.55 68.73 629.55 93.27 622.65 93.27"/><path class="cls-2" d="M104.46,62l-3.87-7.49H96.22V62H89V37.48h12.81a6.87,6.87,0,0,1,1.77.24,9.35,9.35,0,0,1,1.77.67,8.4,8.4,0,0,1,1.58,1,6.7,6.7,0,0,1,1.25,1.34,7.57,7.57,0,0,1,1,2,7.4,7.4,0,0,1,.33,2.2,7.23,7.23,0,0,1-.82,3.37A7.87,7.87,0,0,1,106.47,51l5.74,11h-7.75ZM99.84,43.22H96.22v4.69h3.61a2.32,2.32,0,0,0,1.68-.69,2.26,2.26,0,0,0,.71-1.67,2.2,2.2,0,0,0-.71-1.65,2.35,2.35,0,0,0-1.68-.68" transform="translate(519 68)"/><polygon class="cls-2" points="658.15 111.85 658.15 105.48 652.02 105.48 644.83 105.48 638.71 105.48 638.71 111.85 644.83 111.85 644.83 123.66 638.71 123.66 638.71 130.03 644.83 130.03 652.02 130.03 658.15 130.03 658.15 123.66 652.02 123.66 652.02 111.85 658.15 111.85"/><rect class="cls-3" width="1920" height="1080"/><path class="cls-4" d="M-519,827.71s293.57-164.36,308.06-187.22S-144.85,536-144.85,536-63.19,421.7-37.39,392.31s111.76-98,111.76-98,51.58,22.86,64.48,35.92,38.69,91.43,77.37,127.35S336.57,575.18,358.07,601.3s107.46,55.51,202,81.64,236.42,32.66,249.31,35.92,183.19,9.8,254.93,26.12S1401,780.9,1401,780.9v231H-519V827.71Z" transform="translate(519 68)"/><path class="cls-4" d="M358.07,721.31l412.65,48.16s271.23-28.78,261.8-30.27l-0.07,0c-80.9-12.14-211.8-17.48-223-20.33-12.9-3.26-154.75-9.8-249.31-35.92s-180.54-55.51-202-81.64S254.9,493.54,216.21,457.62s-64.48-114.29-77.37-127.35-64.48-35.92-64.48-35.92l63.4,226.13Z" transform="translate(519 68)"/><g class="cls-5"><path class="cls-6" d="M1329.52,331.36c-8.59-19.6-45.85-104.5-74.51-95.79S1177.64,355.3,1151.85,364s-40.12,15.24-57.31,26.12S948.39,616.54,899.67,629.6s-192.32,78.91-192.42,78.95c52.63,5.92,95.35,8.59,102.15,10.31,12.9,3.26,183.19,9.8,254.93,26.12S1401,780.9,1401,780.9V457.62S1338.12,351,1329.52,331.36Z" transform="translate(519 68)"/></g><path class="cls-4" d="M1245.7,743.35l-77.37-50.62s-2.15-63.68,0-93.06,36.54-50.61,47.28-57.14,10.74-24.49,6.45-34.6-15-29.08-17.2-34,15-52.24,15-52.24h70.92L1265,385.78l-8.6-18-8.59-27.76,8.59-27.76-8.59-44.08L1264.51,236a15.78,15.78,0,0,0-9.49-.42c-28.66,8.71-77.37,119.73-103.16,128.44s-40.12,15.24-57.31,26.12S948.39,616.54,899.67,629.6s-192.32,78.91-192.42,78.95c52.63,5.92,95.35,8.59,102.15,10.31,12.9,3.26,183.19,9.8,254.93,26.12,33,7.51,106.85,15.69,177,22.36Z" transform="translate(519 68)"/><path class="cls-7" d="M707.38,708.56c39.87,4.49,74,7.11,91.15,8.85C781.4,715.67,747.3,713.05,707.38,708.56Z" transform="translate(519 68)"/><path class="cls-4" d="M560.1,682.94c44.72,12.35,99.93,20.29,147.16,25.61,0.05,0,33.24-15.23,73.05-32.46h0S747.08,637.22,732,627.43s-73.07-18-73.07-18-25.79-34.29-47.28-46.52-51.58-35.11-58.11-55-21.41-32.34-40.75-48.67S487,434.76,474.12,436.4,386,478.85,375.26,490.28s-4.3,31-15,34.29-37.45,38.38-37.45,38.38l0,0c15.49,16.09,28.57,30.11,35.34,38.34C379.56,627.43,465.53,656.81,560.1,682.94Z" transform="translate(519 68)"/><path class="cls-4" d="M732,627.43c-15-9.8-73.07-18-73.07-18s-25.79-34.29-47.28-46.52-51.58-35.11-58.11-55-21.41-32.34-40.75-48.67c-15.94-13.46-23.27-21-32.52-22.45,1.43,8.64,3.65,18.47,6.73,20.81,5.73,4.35,0,18.5,0,18.5l11.54,55.79V561l10,26.12L530,619.81l55.88,28.3L604.51,684l38.69,9.8,1.54,6.35c21.32,3.3,42.64,6.14,62.52,8.37,0.05,0,33.24-15.23,73.05-32.46h0S747.08,637.22,732,627.43Z" transform="translate(519 68)"/></g></g></svg>