<svg xmlns="http://www.w3.org/2000/svg" xmlns:xlink="http://www.w3.org/1999/xlink" viewBox="0 0 200.47 578.65"><defs><style>.cls-1{mask:url(#mask);}.cls-12,.cls-14,.cls-16,.cls-2,.cls-20,.cls-4,.cls-6,.cls-8{mix-blend-mode:multiply;}.cls-2{fill:url(#radial-gradient);}.cls-3{mask:url(#mask-2);}.cls-4{fill:url(#radial-gradient-2);}.cls-5{mask:url(#mask-3);}.cls-6{fill:url(#radial-gradient-3);}.cls-7{mask:url(#mask-4);}.cls-8{fill:url(#radial-gradient-4);}.cls-9{isolation:isolate;}.cls-10,.cls-23{opacity:0.6;}.cls-11{mask:url(#mask-5);}.cls-12,.cls-14,.cls-16{opacity:0.4;}.cls-12{fill:url(#radial-gradient-5);}.cls-13{mask:url(#mask-6);}.cls-14{fill:url(#radial-gradient-6);}.cls-15{mask:url(#mask-7);}.cls-16{fill:url(#radial-gradient-7);}.cls-17{fill:#fff;}.cls-18{fill:url(#radial-gradient-8);}.cls-19{mask:url(#mask-8);}.cls-20{fill:url(#radial-gradient-9);}.cls-21{fill:url(#radial-gradient-10);}.cls-22{fill:url(#radial-gradient-11);}.cls-23{fill:#d2d3d3;}.cls-24{fill:url(#linear-gradient);}.cls-25{fill:url(#radial-gradient-12);}.cls-26{fill:#f2f2f2;}.cls-27{filter:url(#luminosity-noclip-4);}.cls-28{filter:url(#luminosity-noclip-3);}.cls-29{filter:url(#luminosity-noclip-2);}.cls-30{filter:url(#luminosity-noclip);}</style><filter id="luminosity-noclip" x="219.95" y="-8498" width="119.53" height="32766" filterUnits="userSpaceOnUse" color-interpolation-filters="sRGB"><feFlood flood-color="#fff" result="bg"/><feBlend in="SourceGraphic" in2="bg"/></filter><mask id="mask" x="219.95" y="-8498" width="119.53" height="32766" maskUnits="userSpaceOnUse"><g class="cls-30"/></mask><radialGradient id="radial-gradient" cx="241.75" cy="319.71" r="51.57" gradientTransform="matrix(1.16, 0.03, -0.02, 0.89, 5.8, 86.98)" gradientUnits="userSpaceOnUse"><stop offset="0.09" stop-color="#fff"/><stop offset="0.17" stop-color="#f3f3f3"/><stop offset="0.32" stop-color="#d1d1d1"/><stop offset="0.52" stop-color="#9c9c9c"/><stop offset="0.76" stop-color="#515151"/><stop offset="1"/></radialGradient><filter id="luminosity-noclip-2" x="287.13" y="-8498" width="119.52" height="32766" filterUnits="userSpaceOnUse" color-interpolation-filters="sRGB"><feFlood flood-color="#fff" result="bg"/><feBlend in="SourceGraphic" in2="bg"/></filter><mask id="mask-2" x="287.13" y="-8498" width="119.52" height="32766" maskUnits="userSpaceOnUse"><g class="cls-29"/></mask><radialGradient id="radial-gradient-2" cx="299.67" cy="317.79" r="51.57" xlink:href="#radial-gradient"/><filter id="luminosity-noclip-3" x="256.98" y="-8498" width="119.56" height="32766" filterUnits="userSpaceOnUse" color-interpolation-filters="sRGB"><feFlood flood-color="#fff" result="bg"/><feBlend in="SourceGraphic" in2="bg"/></filter><mask id="mask-3" x="256.98" y="-8498" width="119.56" height="32766" maskUnits="userSpaceOnUse"><g class="cls-28"/></mask><radialGradient id="radial-gradient-3" cx="274.23" cy="208.92" r="51.57" gradientTransform="matrix(1.16, 0.03, -0.03, 1.44, 5.58, 69.44)" xlink:href="#radial-gradient"/><filter id="luminosity-noclip-4" x="262.41" y="-8498" width="126.32" height="32766" filterUnits="userSpaceOnUse" color-interpolation-filters="sRGB"><feFlood flood-color="#fff" result="bg"/><feBlend in="SourceGraphic" in2="bg"/></filter><mask id="mask-4" x="262.41" y="-8498" width="126.32" height="32766" maskUnits="userSpaceOnUse"><g class="cls-27"/></mask><radialGradient id="radial-gradient-4" cx="279.38" cy="350.48" r="44.69" gradientTransform="matrix(1.41, 0.03, -0.02, 1.09, -60.76, -66.93)" gradientUnits="userSpaceOnUse"><stop offset="0" stop-color="#fff"/><stop offset="0.09" stop-color="#f3f3f3"/><stop offset="0.25" stop-color="#d3d3d3"/><stop offset="0.46" stop-color="#a0a0a0"/><stop offset="0.71" stop-color="#595959"/><stop offset="1"/></radialGradient><mask id="mask-5" x="0" y="459.58" width="119.53" height="91.76" maskUnits="userSpaceOnUse"><g transform="translate(-219.95 128)"><g class="cls-1"><path class="cls-2" d="M339.46,378.88c0.56-25.41-25.71-46.54-58.77-47.27S220.53,350.78,220,376.2s25.71,46.38,58.7,47.12S338.9,404.15,339.46,378.88Z"/></g></g></mask><radialGradient id="radial-gradient-5" cx="241.75" cy="319.71" r="51.57" gradientTransform="matrix(1.16, 0.03, -0.02, 0.89, 5.8, 86.98)" gradientUnits="userSpaceOnUse"><stop offset="0.27" stop-color="#7387a0"/><stop offset="0.68" stop-color="#bfc8d4"/><stop offset="1" stop-color="#fff"/></radialGradient><mask id="mask-6" x="67.18" y="459.38" width="119.52" height="91.76" maskUnits="userSpaceOnUse"><g transform="translate(-219.95 128)"><g class="cls-3"><path class="cls-4" d="M406.64,378.67c0.57-25.42-25.71-46.53-58.77-47.27S287.7,350.57,287.13,376c-0.57,25.28,25.71,46.38,58.7,47.12S406.07,403.95,406.64,378.67Z"/></g></g></mask><radialGradient id="radial-gradient-6" cx="299.67" cy="317.79" r="51.57" xlink:href="#radial-gradient-5"/><mask id="mask-7" x="37.03" y="430.46" width="119.56" height="148.19" maskUnits="userSpaceOnUse"><g transform="translate(-219.95 128)"><g class="cls-5"><path class="cls-6" d="M376.51,378c0.91-41.06-25.08-74.81-58.14-75.54S257.92,334.26,257,375.32c-0.91,40.86,25.08,74.57,58.07,75.32S375.6,418.84,376.51,378Z"/></g></g></mask><radialGradient id="radial-gradient-7" cx="274.23" cy="208.92" r="51.57" gradientTransform="matrix(1.16, 0.03, -0.03, 1.44, 5.58, 69.44)" xlink:href="#radial-gradient-5"/><radialGradient id="radial-gradient-8" cx="361.26" cy="326.11" r="113.32" gradientTransform="translate(5.31 -16.47) rotate(1.28)" gradientUnits="userSpaceOnUse"><stop offset="0" stop-color="#fff"/><stop offset="0.36" stop-color="#f2f2f2"/><stop offset="1" stop-color="#d1d2d2"/></radialGradient><mask id="mask-8" x="42.46" y="401.75" width="126.32" height="97.06" maskUnits="userSpaceOnUse"><g transform="translate(-219.95 128)"><g class="cls-7"><path class="cls-8" d="M388.72,323.68c0.6-26.8-27.17-49.14-62.07-49.91S263,294.05,262.42,320.85s27.17,49.17,62.06,49.94S388.12,350.51,388.72,323.68Z"/></g></g></mask><radialGradient id="radial-gradient-9" cx="279.38" cy="350.48" r="44.69" gradientTransform="matrix(1.41, 0.03, -0.02, 1.09, -60.76, -66.93)" gradientUnits="userSpaceOnUse"><stop offset="0" stop-color="#221f1f"/><stop offset="0.1" stop-color="#2e2b2b"/><stop offset="0.27" stop-color="#4d4b4b"/><stop offset="0.51" stop-color="#807e7e"/><stop offset="0.78" stop-color="#c5c4c4"/><stop offset="1" stop-color="#fff"/></radialGradient><radialGradient id="radial-gradient-10" cx="574.73" cy="313.67" r="107.38" gradientTransform="matrix(0.74, 0.02, -0.02, 1, -48.01, -17.45)" gradientUnits="userSpaceOnUse"><stop offset="0" stop-color="#f3f3f1"/><stop offset="1" stop-color="#dadbd9"/></radialGradient><radialGradient id="radial-gradient-11" cx="352.3" cy="331.57" r="98.8" gradientTransform="translate(5.31 -16.47) rotate(1.28)" gradientUnits="userSpaceOnUse"><stop offset="0" stop-color="#fff"/><stop offset="0.68" stop-color="#f2f2f2"/><stop offset="1" stop-color="#ebebea"/></radialGradient><linearGradient id="linear-gradient" x1="599.39" y1="272.55" x2="602.22" y2="272.55" gradientTransform="matrix(-1, 0, 0, 1, 722.3, 128)" gradientUnits="userSpaceOnUse"><stop offset="0" stop-color="#c2c2c1"/><stop offset="0.27" stop-color="#d4d4d2"/><stop offset="0.72" stop-color="#ebebe9"/><stop offset="1" stop-color="#f3f3f1"/></linearGradient><radialGradient id="radial-gradient-12" cx="601.29" cy="273.15" r="2.55" gradientTransform="matrix(-1, 0, 0, 1, 722.3, 128)" gradientUnits="userSpaceOnUse"><stop offset="0.04" stop-color="#c8cedc"/><stop offset="0.21" stop-color="#c3cbd9"/><stop offset="0.41" stop-color="#b5c2d0"/><stop offset="0.63" stop-color="#9db4c2"/><stop offset="0.85" stop-color="#7da0ae"/><stop offset="0.97" stop-color="#6893a1"/></radialGradient></defs><title>cloud_2</title><g class="cls-9"><g id="Layer_1" data-name="Layer 1"><g class="cls-10"><g class="cls-11"><path class="cls-12" d="M339.46,378.88c0.56-25.41-25.71-46.54-58.77-47.27S220.53,350.78,220,376.2s25.71,46.38,58.7,47.12S338.9,404.15,339.46,378.88Z" transform="translate(-219.95 128)"/></g><g class="cls-13"><path class="cls-14" d="M406.64,378.67c0.57-25.42-25.71-46.53-58.77-47.27S287.7,350.57,287.13,376c-0.57,25.28,25.71,46.38,58.7,47.12S406.07,403.95,406.64,378.67Z" transform="translate(-219.95 128)"/></g><g class="cls-15"><path class="cls-16" d="M376.51,378c0.91-41.06-25.08-74.81-58.14-75.54S257.92,334.26,257,375.32c-0.91,40.86,25.08,74.57,58.07,75.32S375.6,418.84,376.51,378Z" transform="translate(-219.95 128)"/></g></g><path class="cls-17" d="M413.32,304.23a25.61,25.61,0,0,0-17.66-8,18.88,18.88,0,0,0-16.47-11.94,12.63,12.63,0,0,0-19.36-10.59,22.18,22.18,0,0,0-16.66-8.1h-0.82l-0.51,0a22.33,22.33,0,0,0-17.05,7.35,12.67,12.67,0,0,0-19.84,9.71,18.92,18.92,0,0,0-17,11.2,25.86,25.86,0,0,0-.68,51.71,26.69,26.69,0,0,0,2.89-.1,15,15,0,0,0,26.36,8.15,32.68,32.68,0,0,0,48,1.06,15,15,0,0,0,26.69-7,23.35,23.35,0,0,0,2.89.23,25.88,25.88,0,0,0,26.37-25.33A25.61,25.61,0,0,0,413.32,304.23Zm-19.26,42.86a28.11,28.11,0,0,1-3.2-.28l-0.41-.07,0,0.42a14.2,14.2,0,0,1-25.57,6.6l-0.29-.4-0.34.36a31.89,31.89,0,0,1-47.39-1.05l-0.32-.38-0.31.38a14.2,14.2,0,0,1-25.24-7.75l0-.42-0.41.05a26,26,0,0,1-3.2.13,25,25,0,0,1,.92-50.06h0.27l0.11-.25a18.05,18.05,0,0,1,16.75-10.95h0.4V283a11.83,11.83,0,0,1,18.85-9.24l0.3,0.22,0.26-.28a21.48,21.48,0,0,1,16.66-7.35l0.48,0h0.86a21.39,21.39,0,0,1,16.28,8.08l0.24,0.29,0.31-.21a11.82,11.82,0,0,1,18.39,10.09v0.4h0.4A18,18,0,0,1,395,296.75l0.1,0.26h0.28A25,25,0,0,1,394.06,347.08Z" transform="translate(-219.95 128)"/><path class="cls-18" d="M395.38,296.61a18.5,18.5,0,0,0-16.59-12h0a12.23,12.23,0,0,0-19-10.43A21.76,21.76,0,0,0,343.15,266h-0.67l-0.67,0a21.84,21.84,0,0,0-17,7.49A12.24,12.24,0,0,0,305.33,283h0a18.47,18.47,0,0,0-17.11,11.2,25.45,25.45,0,0,0-.94,50.88,23.83,23.83,0,0,0,3.26-.14,14.62,14.62,0,0,0,26,8,32.28,32.28,0,0,0,48,1.07,14.6,14.6,0,0,0,26.3-6.79,27.18,27.18,0,0,0,3.25.29A25.45,25.45,0,0,0,395.38,296.61Z" transform="translate(-219.95 128)"/><g class="cls-19"><path class="cls-20" d="M388.72,323.68c0.6-26.8-27.17-49.14-62.07-49.91S263,294.05,262.42,320.85s27.17,49.17,62.06,49.94S388.12,350.51,388.72,323.68Z" transform="translate(-219.95 128)"/></g><path class="cls-17" d="M391.6,303.88c-3.26-4.93-7.66-7.71-12.41-7.84-1.89-7-6.45-11.63-11.69-11.86,0-6.9-3.92-12.48-8.75-12.48a7.2,7.2,0,0,0-5,2.16c-3-5-7.31-7.89-11.94-7.89h-0.67L341,366h0.19c6.24,0.14,12.25-3.63,16.52-10.36,1.93,3.65,4.81,5.79,7.95,5.86,5.22,0.1,9.64-5.54,10.36-13.15a12.49,12.49,0,0,0,2.07.22c9.77,0.17,18-11.52,18.32-26.11A32.82,32.82,0,0,0,391.6,303.88Z" transform="translate(-219.95 128)"/><path class="cls-17" d="M341.22,266h-0.36c-4.63,0-9,2.86-12,7.85a7.25,7.25,0,0,0-5-2.16c-4.86,0-8.76,5.49-8.8,12.32-5.25.19-9.83,4.71-11.74,11.58-4.76.06-9.17,2.73-12.44,7.51a31.11,31.11,0,0,0-4.87,18c0.28,14.23,8.47,26,18.25,26.12a11.94,11.94,0,0,0,2.07-.14c0.71,7.53,5.11,13.26,10.33,13.37,3.14,0.06,6-1.93,8-5.47,4.28,6.85,10.3,10.87,16.54,11h0.19l0.15-100h-0.32Z" transform="translate(-219.95 128)"/><path class="cls-21" d="M357.73,355.21c1.81,3.6,4.69,5.95,7.93,6,5.21,0.12,9.57-5.68,10.19-13.18a12.92,12.92,0,0,0,2.24.25c9.69,0.18,17.81-11.38,18.13-25.83s-7.36-26-17.18-26.16c-1.81-6.86-6.34-11.73-11.75-11.87h0c0.07-6.88-3.76-12.46-8.56-12.47a7.12,7.12,0,0,0-5,2.26c-2.83-4.88-7.1-8-11.91-8l-0.47,0-0.15,99.48C347.73,365.88,353.63,361.81,357.73,355.21Z" transform="translate(-219.95 128)"/><path class="cls-22" d="M340.86,266.24c-4.8,0-9.11,3.09-12,7.95a7.11,7.11,0,0,0-5-2.25c-4.81,0-8.67,5.51-8.61,12.3h0c-5.43.09-10,4.86-11.8,11.58-9.82,0-17.53,11.33-17.26,25.3s8.36,25.67,18.05,25.85a13.29,13.29,0,0,0,2.24-.16c0.6,7.4,4.95,13.28,10.16,13.39,3.25,0.07,6.15-2.14,8-5.62,4.1,6.71,10,11,16.54,11.16l0.15-99.48Z" transform="translate(-219.95 128)"/><path class="cls-23" d="M342.09,265.62a0.65,0.65,0,0,0-.65-0.65h0a0.65,0.65,0,0,0-.66.65v6.28a0.65,0.65,0,0,0,.66.65h0a0.65,0.65,0,0,0,.65-0.65v-6.28Z" transform="translate(-219.95 128)"/><circle class="cls-24" cx="121.5" cy="400.55" r="1.42"/><circle class="cls-25" cx="121.5" cy="400.55" r="1.23"/><path class="cls-26" d="M341.66,272.55a0.4,0.4,0,0,0,.44-0.37V-127.63a0.41,0.41,0,0,0-.44-0.37,0.41,0.41,0,0,0-.44.37V272.19A0.4,0.4,0,0,0,341.66,272.55Z" transform="translate(-219.95 128)"/><path class="cls-26" d="M336.45,263.18a1.74,1.74,0,0,1,0-2,0.81,0.81,0,0,1,.65-0.43c1.39-.17,4.26,2.83,4.58,3.17a0.26,0.26,0,0,1,.08.19c0.37,0,.74-0.07,1.1-0.13,1.74-.3,2.87-1,3.12-1.86a0.29,0.29,0,0,1,.36-0.2,0.29,0.29,0,0,1,.2.36c-0.31,1.11-1.61,1.94-3.58,2.27a11.06,11.06,0,0,1-1.88.16C339.13,264.72,337.19,264.23,336.45,263.18Zm0.71-1.85a0.3,0.3,0,0,0-.21.15,1.2,1.2,0,0,0,0,1.37c0.56,0.8,2.28,1.3,4.15,1.3-1.14-1.17-3-2.82-3.85-2.82h-0.07Z" transform="translate(-219.95 128)"/></g></g></svg>