<svg xmlns="http://www.w3.org/2000/svg" xmlns:xlink="http://www.w3.org/1999/xlink" viewBox="0 0 267.28 451.99"><defs><style>.cls-1{mask:url(#mask);}.cls-12,.cls-14,.cls-16,.cls-2,.cls-20,.cls-4,.cls-6,.cls-8{mix-blend-mode:multiply;}.cls-2{fill:url(#radial-gradient);}.cls-3{mask:url(#mask-2);}.cls-4{fill:url(#radial-gradient-2);}.cls-5{mask:url(#mask-3);}.cls-6{fill:url(#radial-gradient-3);}.cls-7{mask:url(#mask-4);}.cls-8{fill:url(#radial-gradient-4);}.cls-9{isolation:isolate;}.cls-10,.cls-12,.cls-14,.cls-16{opacity:0.4;}.cls-11{mask:url(#mask-5);}.cls-12{fill:url(#radial-gradient-5);}.cls-13{mask:url(#mask-6);}.cls-14{fill:url(#radial-gradient-6);}.cls-15{mask:url(#mask-7);}.cls-16{fill:url(#radial-gradient-7);}.cls-17{fill:#fff;}.cls-18{fill:url(#radial-gradient-8);}.cls-19{mask:url(#mask-8);}.cls-20{fill:url(#radial-gradient-9);}.cls-21{fill:url(#radial-gradient-10);}.cls-22{fill:url(#radial-gradient-11);}.cls-23{fill:#d2d3d3;opacity:0.6;}.cls-24{fill:url(#linear-gradient);}.cls-25{fill:url(#radial-gradient-12);}.cls-26{fill:#f2f2f2;}.cls-27{filter:url(#luminosity-noclip-4);}.cls-28{filter:url(#luminosity-noclip-3);}.cls-29{filter:url(#luminosity-noclip-2);}.cls-30{filter:url(#luminosity-noclip);}</style><filter id="luminosity-noclip" x="220.79" y="-8498" width="153.8" height="32766" filterUnits="userSpaceOnUse" color-interpolation-filters="sRGB"><feFlood flood-color="#fff" result="bg"/><feBlend in="SourceGraphic" in2="bg"/></filter><mask id="mask" x="220.79" y="-8498" width="153.8" height="32766" maskUnits="userSpaceOnUse"><g class="cls-30"/></mask><radialGradient id="radial-gradient" cx="257.96" cy="360.48" r="66.35" gradientTransform="matrix(1.16, 0.03, -0.02, 0.89, 5.8, 86.98)" gradientUnits="userSpaceOnUse"><stop offset="0.09" stop-color="#fff"/><stop offset="0.17" stop-color="#f3f3f3"/><stop offset="0.32" stop-color="#d1d1d1"/><stop offset="0.52" stop-color="#9c9c9c"/><stop offset="0.76" stop-color="#515151"/><stop offset="1"/></radialGradient><filter id="luminosity-noclip-2" x="307.24" y="-8498" width="153.8" height="32766" filterUnits="userSpaceOnUse" color-interpolation-filters="sRGB"><feFlood flood-color="#fff" result="bg"/><feBlend in="SourceGraphic" in2="bg"/></filter><mask id="mask-2" x="307.24" y="-8498" width="153.8" height="32766" maskUnits="userSpaceOnUse"><g class="cls-29"/></mask><radialGradient id="radial-gradient-2" cx="332.49" cy="358.02" r="66.35" xlink:href="#radial-gradient"/><filter id="luminosity-noclip-3" x="268.45" y="-8498" width="153.83" height="32766" filterUnits="userSpaceOnUse" color-interpolation-filters="sRGB"><feFlood flood-color="#fff" result="bg"/><feBlend in="SourceGraphic" in2="bg"/></filter><mask id="mask-3" x="268.45" y="-8498" width="153.83" height="32766" maskUnits="userSpaceOnUse"><g class="cls-28"/></mask><radialGradient id="radial-gradient-3" cx="299.6" cy="233.82" r="66.35" gradientTransform="matrix(1.16, 0.03, -0.03, 1.44, 5.58, 69.44)" xlink:href="#radial-gradient"/><filter id="luminosity-noclip-4" x="284.77" y="-8498" width="162.55" height="32766" filterUnits="userSpaceOnUse" color-interpolation-filters="sRGB"><feFlood flood-color="#fff" result="bg"/><feBlend in="SourceGraphic" in2="bg"/></filter><mask id="mask-4" x="284.77" y="-8498" width="162.55" height="32766" maskUnits="userSpaceOnUse"><g class="cls-27"/></mask><radialGradient id="radial-gradient-4" cx="308.27" cy="365.16" r="57.5" gradientTransform="matrix(1.41, 0.03, -0.02, 1.09, -60.76, -66.93)" gradientUnits="userSpaceOnUse"><stop offset="0" stop-color="#fff"/><stop offset="0.09" stop-color="#f3f3f3"/><stop offset="0.25" stop-color="#d3d3d3"/><stop offset="0.46" stop-color="#a0a0a0"/><stop offset="0.71" stop-color="#595959"/><stop offset="1"/></radialGradient><mask id="mask-5" x="0" y="298.79" width="153.8" height="118.06" maskUnits="userSpaceOnUse"><g transform="translate(-220.79 -56.31)"><g class="cls-1"><path class="cls-2" d="M374.58,415.94c0.72-32.7-33.08-59.87-75.62-60.82s-77.41,24.67-78.15,57.37c-0.73,32.54,33.08,59.69,75.53,60.63S373.85,448.47,374.58,415.94Z"/></g></g></mask><radialGradient id="radial-gradient-5" cx="257.96" cy="360.48" r="66.35" gradientTransform="matrix(1.16, 0.03, -0.02, 0.89, 5.8, 86.98)" gradientUnits="userSpaceOnUse"><stop offset="0.27" stop-color="#7387a0"/><stop offset="0.68" stop-color="#bfc8d4"/><stop offset="1" stop-color="#fff"/></radialGradient><mask id="mask-6" x="86.44" y="298.53" width="153.8" height="118.06" maskUnits="userSpaceOnUse"><g transform="translate(-220.79 -56.31)"><g class="cls-3"><path class="cls-4" d="M461,415.69c0.72-32.71-33.09-59.88-75.62-60.82S308,379.53,307.25,412.24c-0.73,32.53,33.08,59.68,75.52,60.63S460.3,448.22,461,415.69Z"/></g></g></mask><radialGradient id="radial-gradient-6" cx="332.49" cy="358.02" r="66.35" xlink:href="#radial-gradient-5"/><mask id="mask-7" x="47.66" y="261.31" width="153.83" height="190.69" maskUnits="userSpaceOnUse"><g transform="translate(-220.79 -56.31)"><g class="cls-5"><path class="cls-6" d="M422.25,414.84c1.17-52.83-32.27-96.25-74.81-97.21s-77.78,40.92-79,93.75c-1.17,52.57,32.27,96,74.71,96.91S421.07,467.38,422.25,414.84Z"/></g></g></mask><radialGradient id="radial-gradient-7" cx="299.6" cy="233.82" r="66.35" gradientTransform="matrix(1.16, 0.03, -0.03, 1.44, 5.58, 69.44)" xlink:href="#radial-gradient-5"/><radialGradient id="radial-gradient-8" cx="411.71" cy="340.5" r="145.82" gradientTransform="translate(5.31 -16.47) rotate(1.28)" gradientUnits="userSpaceOnUse"><stop offset="0" stop-color="#fff"/><stop offset="0.36" stop-color="#f2f2f2"/><stop offset="1" stop-color="#d1d2d2"/></radialGradient><mask id="mask-8" x="63.98" y="220.36" width="162.55" height="124.89" maskUnits="userSpaceOnUse"><g transform="translate(-220.79 -56.31)"><g class="cls-7"><path class="cls-8" d="M447.3,340.93c0.76-34.5-35-63.24-79.87-64.24s-81.89,26.1-82.65,60.58,35,63.26,79.86,64.26S446.52,375.45,447.3,340.93Z"/></g></g></mask><radialGradient id="radial-gradient-9" cx="308.27" cy="365.16" r="57.5" gradientTransform="matrix(1.41, 0.03, -0.02, 1.09, -60.76, -66.93)" gradientUnits="userSpaceOnUse"><stop offset="0" stop-color="#221f1f"/><stop offset="0.1" stop-color="#2e2b2b"/><stop offset="0.27" stop-color="#4d4b4b"/><stop offset="0.51" stop-color="#807e7e"/><stop offset="0.78" stop-color="#c5c4c4"/><stop offset="1" stop-color="#fff"/></radialGradient><radialGradient id="radial-gradient-10" cx="646.95" cy="324.55" r="138.17" gradientTransform="matrix(0.74, 0.02, -0.02, 1, -48.01, -17.45)" gradientUnits="userSpaceOnUse"><stop offset="0" stop-color="#f3f3f1"/><stop offset="1" stop-color="#dadbd9"/></radialGradient><radialGradient id="radial-gradient-11" cx="400.18" cy="347.52" r="127.12" gradientTransform="translate(5.31 -16.47) rotate(1.28)" gradientUnits="userSpaceOnUse"><stop offset="0" stop-color="#fff"/><stop offset="0.68" stop-color="#f2f2f2"/><stop offset="1" stop-color="#ebebea"/></radialGradient><linearGradient id="linear-gradient" x1="553.96" y1="275.14" x2="557.61" y2="275.14" gradientTransform="matrix(-1, 0, 0, 1, 721.45, -56.31)" gradientUnits="userSpaceOnUse"><stop offset="0" stop-color="#c2c2c1"/><stop offset="0.27" stop-color="#d4d4d2"/><stop offset="0.72" stop-color="#ebebe9"/><stop offset="1" stop-color="#f3f3f1"/></linearGradient><radialGradient id="radial-gradient-12" cx="556.41" cy="275.9" r="3.28" gradientTransform="matrix(-1, 0, 0, 1, 721.45, -56.31)" gradientUnits="userSpaceOnUse"><stop offset="0.04" stop-color="#c8cedc"/><stop offset="0.21" stop-color="#c3cbd9"/><stop offset="0.41" stop-color="#b5c2d0"/><stop offset="0.63" stop-color="#9db4c2"/><stop offset="0.85" stop-color="#7da0ae"/><stop offset="0.97" stop-color="#6893a1"/></radialGradient></defs><title>cloud_3</title><g class="cls-9"><g id="Layer_1" data-name="Layer 1"><g class="cls-10"><g class="cls-11"><path class="cls-12" d="M374.58,415.94c0.72-32.7-33.08-59.87-75.62-60.82s-77.41,24.67-78.15,57.37c-0.73,32.54,33.08,59.69,75.53,60.63S373.85,448.47,374.58,415.94Z" transform="translate(-220.79 -56.31)"/></g><g class="cls-13"><path class="cls-14" d="M461,415.69c0.72-32.71-33.09-59.88-75.62-60.82S308,379.53,307.25,412.24c-0.73,32.53,33.08,59.68,75.52,60.63S460.3,448.22,461,415.69Z" transform="translate(-220.79 -56.31)"/></g><g class="cls-15"><path class="cls-16" d="M422.25,414.84c1.17-52.83-32.27-96.25-74.81-97.21s-77.78,40.92-79,93.75c-1.17,52.57,32.27,96,74.71,96.91S421.07,467.38,422.25,414.84Z" transform="translate(-220.79 -56.31)"/></g></g><path class="cls-17" d="M478.95,315.89a33,33,0,0,0-22.73-10.32A24.31,24.31,0,0,0,435,290.21a16.26,16.26,0,0,0-24.91-13.63,28.55,28.55,0,0,0-21.44-10.42h-1.05l-0.67,0A28.74,28.74,0,0,0,365,275.57a16.3,16.3,0,0,0-25.53,12.5,24.33,24.33,0,0,0-21.85,14.4,33.27,33.27,0,0,0-.88,66.54,36.18,36.18,0,0,0,3.72-.12,19.33,19.33,0,0,0,33.91,10.48,42.05,42.05,0,0,0,61.71,1.37,19.32,19.32,0,0,0,34.34-8.95,30.85,30.85,0,0,0,3.71.29A33.3,33.3,0,0,0,478.95,315.89ZM454.16,371a33.83,33.83,0,0,1-4.12-.35l-0.54-.09-0.06.55a18.28,18.28,0,0,1-32.9,8.49l-0.37-.52-0.43.47a41,41,0,0,1-61-1.35l-0.41-.48-0.41.49a18.27,18.27,0,0,1-32.48-10l-0.05-.55-0.54.06a33.45,33.45,0,0,1-4.11.17A32.22,32.22,0,0,1,318,303.53h0.35l0.14-.32A23.22,23.22,0,0,1,340,289.13h0.51l0-.52a15.23,15.23,0,0,1,24.25-11.9l0.39,0.29,0.32-.37a27.64,27.64,0,0,1,21.45-9.45l0.62,0h1.1a27.51,27.51,0,0,1,20.95,10.4l0.31,0.38,0.4-.27a15.21,15.21,0,0,1,23.66,13v0.52l0.52,0a23.22,23.22,0,0,1,20.89,15l0.13,0.34h0.35A32.22,32.22,0,0,1,454.16,371Z" transform="translate(-220.79 -56.31)"/><path class="cls-18" d="M455.86,306.09a23.8,23.8,0,0,0-21.35-15.38h0A15.75,15.75,0,0,0,410,277.28a28,28,0,0,0-21.34-10.6c-0.29,0-.57,0-0.86,0l-0.86,0a28.13,28.13,0,0,0-21.85,9.64,15.76,15.76,0,0,0-25.1,12.3h0A23.79,23.79,0,0,0,318,303a32.74,32.74,0,0,0-1.21,65.47,32.06,32.06,0,0,0,4.19-.18,18.81,18.81,0,0,0,33.43,10.25,41.52,41.52,0,0,0,61.76,1.38A18.8,18.8,0,0,0,450,371.19a35,35,0,0,0,4.17.37A32.75,32.75,0,0,0,455.86,306.09Z" transform="translate(-220.79 -56.31)"/><g class="cls-19"><path class="cls-20" d="M447.3,340.93c0.76-34.5-35-63.24-79.87-64.24s-81.89,26.1-82.65,60.58,35,63.26,79.86,64.26S446.52,375.45,447.3,340.93Z" transform="translate(-220.79 -56.31)"/></g><path class="cls-17" d="M451,315.44c-4.19-6.34-9.86-9.92-16-10.09-2.43-9-8.31-15-15-15.27,0-8.88-5-16.05-11.26-16.06a9.25,9.25,0,0,0-6.41,2.78c-3.83-6.46-9.41-10.15-15.37-10.15l-0.47,0-0.4,0-0.17,128.7h0.24c8,0.19,15.76-4.67,21.27-13.33,2.48,4.7,6.19,7.44,10.22,7.53,6.72,0.14,12.4-7.12,13.33-16.92a16.16,16.16,0,0,0,2.67.28c12.57,0.23,23.16-14.82,23.57-33.6C457.4,330.35,455.2,321.86,451,315.44Z" transform="translate(-220.79 -56.31)"/><path class="cls-17" d="M386.18,266.67l-0.46,0c-6,0-11.57,3.68-15.42,10.1a9.35,9.35,0,0,0-6.44-2.78c-6.25,0-11.27,7.07-11.32,15.85-6.76.25-12.65,6.07-15.11,14.9-6.12.08-11.8,3.52-16,9.67s-6.45,14.45-6.28,23.22c0.37,18.31,10.9,33.39,23.48,33.61a15.07,15.07,0,0,0,2.66-.18c0.91,9.68,6.58,17.06,13.29,17.21,4,0.08,7.77-2.48,10.27-7,5.51,8.82,13.25,14,21.28,14.17h0.25l0.2-128.72Z" transform="translate(-220.79 -56.31)"/><path class="cls-21" d="M407.42,381.49c2.32,4.62,6,7.65,10.2,7.74,6.71,0.14,12.32-7.31,13.11-17a16.76,16.76,0,0,0,2.89.32C446.1,372.83,456.56,358,457,339.36c0.4-18.44-9.48-33.44-22.1-33.66-2.32-8.82-8.16-15.1-15.12-15.28h0c0.09-8.86-4.84-16-11-16a9.15,9.15,0,0,0-6.45,2.9C398.63,271,393.12,267,386.94,267l-0.61,0-0.19,128C394.55,395.21,402.15,390,407.42,381.49Z" transform="translate(-220.79 -56.31)"/><path class="cls-22" d="M385.71,267c-6.18,0-11.71,4-15.38,10.22a9.17,9.17,0,0,0-6.47-2.9c-6.2,0-11.15,7.08-11.07,15.83h0c-7,.12-12.84,6.25-15.19,14.91-12.63.05-22.55,14.57-22.2,32.55,0.36,18.14,10.76,33,23.23,33.25a17.15,17.15,0,0,0,2.89-.21c0.77,9.52,6.36,17.09,13.07,17.23,4.18,0.09,7.91-2.75,10.26-7.23,5.28,8.64,12.88,14.17,21.29,14.36l0.19-128Z" transform="translate(-220.79 -56.31)"/><path class="cls-23" d="M387.3,266.21a0.84,0.84,0,0,0-.84-0.84h0a0.84,0.84,0,0,0-.85.84v8.08a0.85,0.85,0,0,0,.85.84h0a0.84,0.84,0,0,0,.84-0.84v-8.08Z" transform="translate(-220.79 -56.31)"/><circle class="cls-24" cx="165.67" cy="218.83" r="1.82"/><circle class="cls-25" cx="165.67" cy="218.83" r="1.58"/><path class="cls-26" d="M386.74,275.14a0.52,0.52,0,0,0,.57-0.47V56.78a0.57,0.57,0,0,0-1.13,0V274.67A0.52,0.52,0,0,0,386.74,275.14Z" transform="translate(-220.79 -56.31)"/><path class="cls-26" d="M380,263.08a2.24,2.24,0,0,1,0-2.56,1,1,0,0,1,.83-0.55c1.79-.21,5.48,3.64,5.89,4.09a0.36,0.36,0,0,1,.09.25c0.47,0,1-.09,1.42-0.17,2.23-.38,3.69-1.25,4-2.39a0.37,0.37,0,0,1,.46-0.26,0.37,0.37,0,0,1,.26.46c-0.4,1.42-2.07,2.49-4.6,2.92a14.35,14.35,0,0,1-2.42.2C383.49,265.06,381,264.43,380,263.08Zm0.91-2.38a0.35,0.35,0,0,0-.26.19,1.53,1.53,0,0,0,0,1.77c0.72,1,2.93,1.67,5.35,1.67-1.46-1.51-3.89-3.63-5-3.63H381Z" transform="translate(-220.79 -56.31)"/></g></g></svg>