<svg xmlns="http://www.w3.org/2000/svg" xmlns:xlink="http://www.w3.org/1999/xlink" viewBox="0 0 250.44 325.11"><defs><style>.cls-1{mask:url(#mask);}.cls-12,.cls-14,.cls-16,.cls-2,.cls-20,.cls-4,.cls-6,.cls-8{mix-blend-mode:multiply;}.cls-2{fill:url(#radial-gradient);}.cls-3{mask:url(#mask-2);}.cls-4{fill:url(#radial-gradient-2);}.cls-5{mask:url(#mask-3);}.cls-6{fill:url(#radial-gradient-3);}.cls-7{mask:url(#mask-4);}.cls-8{fill:url(#radial-gradient-4);}.cls-9{isolation:isolate;}.cls-10,.cls-12,.cls-14,.cls-16{opacity:0.4;}.cls-11{mask:url(#mask-5);}.cls-12{fill:url(#radial-gradient-5);}.cls-13{mask:url(#mask-6);}.cls-14{fill:url(#radial-gradient-6);}.cls-15{mask:url(#mask-7);}.cls-16{fill:url(#radial-gradient-7);}.cls-17{fill:#fff;}.cls-18{fill:url(#radial-gradient-8);}.cls-19{mask:url(#mask-8);}.cls-20{fill:url(#radial-gradient-9);}.cls-21{fill:url(#radial-gradient-10);}.cls-22{fill:url(#radial-gradient-11);}.cls-23{fill:#d2d3d3;opacity:0.6;}.cls-24{fill:url(#linear-gradient);}.cls-25{fill:url(#radial-gradient-12);}.cls-26{fill:#f2f2f2;}.cls-27{filter:url(#luminosity-noclip-4);}.cls-28{filter:url(#luminosity-noclip-3);}.cls-29{filter:url(#luminosity-noclip-2);}.cls-30{filter:url(#luminosity-noclip);}</style><filter id="luminosity-noclip" x="249.52" y="-8498" width="144.11" height="32766" filterUnits="userSpaceOnUse" color-interpolation-filters="sRGB"><feFlood flood-color="#fff" result="bg"/><feBlend in="SourceGraphic" in2="bg"/></filter><mask id="mask" x="249.52" y="-8498" width="144.11" height="32766" maskUnits="userSpaceOnUse"><g class="cls-30"/></mask><radialGradient id="radial-gradient" cx="277.38" cy="291.02" r="62.17" gradientTransform="matrix(1.16, 0.03, -0.02, 0.89, 5.8, 86.98)" gradientUnits="userSpaceOnUse"><stop offset="0.09" stop-color="#fff"/><stop offset="0.17" stop-color="#f3f3f3"/><stop offset="0.32" stop-color="#d1d1d1"/><stop offset="0.52" stop-color="#9c9c9c"/><stop offset="0.76" stop-color="#515151"/><stop offset="1"/></radialGradient><filter id="luminosity-noclip-2" x="330.52" y="-8498" width="144.11" height="32766" filterUnits="userSpaceOnUse" color-interpolation-filters="sRGB"><feFlood flood-color="#fff" result="bg"/><feBlend in="SourceGraphic" in2="bg"/></filter><mask id="mask-2" x="330.52" y="-8498" width="144.11" height="32766" maskUnits="userSpaceOnUse"><g class="cls-29"/></mask><radialGradient id="radial-gradient-2" cx="347.21" cy="288.71" r="62.17" xlink:href="#radial-gradient"/><filter id="luminosity-noclip-3" x="294.17" y="-8498" width="144.14" height="32766" filterUnits="userSpaceOnUse" color-interpolation-filters="sRGB"><feFlood flood-color="#fff" result="bg"/><feBlend in="SourceGraphic" in2="bg"/></filter><mask id="mask-3" x="294.17" y="-8498" width="144.14" height="32766" maskUnits="userSpaceOnUse"><g class="cls-28"/></mask><radialGradient id="radial-gradient-3" cx="316.42" cy="190.92" r="62.17" gradientTransform="matrix(1.16, 0.03, -0.03, 1.44, 5.58, 69.44)" xlink:href="#radial-gradient"/><filter id="luminosity-noclip-4" x="309.46" y="-8498" width="152.3" height="32766" filterUnits="userSpaceOnUse" color-interpolation-filters="sRGB"><feFlood flood-color="#fff" result="bg"/><feBlend in="SourceGraphic" in2="bg"/></filter><mask id="mask-4" x="309.46" y="-8498" width="152.3" height="32766" maskUnits="userSpaceOnUse"><g class="cls-27"/></mask><radialGradient id="radial-gradient-4" cx="321.22" cy="312.7" r="53.88" gradientTransform="matrix(1.41, 0.03, -0.02, 1.09, -60.76, -66.93)" gradientUnits="userSpaceOnUse"><stop offset="0" stop-color="#fff"/><stop offset="0.09" stop-color="#f3f3f3"/><stop offset="0.25" stop-color="#d3d3d3"/><stop offset="0.46" stop-color="#a0a0a0"/><stop offset="0.71" stop-color="#595959"/><stop offset="1"/></radialGradient><mask id="mask-5" x="0" y="181.56" width="144.11" height="110.63" maskUnits="userSpaceOnUse"><g transform="translate(-249.52 -116)"><g class="cls-1"><path class="cls-2" d="M393.62,354.58c0.68-30.64-31-56.11-70.86-57s-72.54,23.12-73.23,53.77c-0.68,30.48,31,55.93,70.78,56.82S392.93,385.06,393.62,354.58Z"/></g></g></mask><radialGradient id="radial-gradient-5" cx="277.38" cy="291.02" r="62.17" gradientTransform="matrix(1.16, 0.03, -0.02, 0.89, 5.8, 86.98)" gradientUnits="userSpaceOnUse"><stop offset="0.27" stop-color="#7387a0"/><stop offset="0.68" stop-color="#bfc8d4"/><stop offset="1" stop-color="#fff"/></radialGradient><mask id="mask-6" x="81" y="181.32" width="144.11" height="110.63" maskUnits="userSpaceOnUse"><g transform="translate(-249.52 -116)"><g class="cls-3"><path class="cls-4" d="M474.61,354.34c0.68-30.65-31-56.11-70.86-57s-72.54,23.11-73.23,53.76c-0.68,30.48,31,55.92,70.77,56.82S473.93,384.81,474.61,354.34Z"/></g></g></mask><radialGradient id="radial-gradient-6" cx="347.21" cy="288.71" r="62.17" xlink:href="#radial-gradient-5"/><mask id="mask-7" x="44.65" y="146.44" width="144.14" height="178.67" maskUnits="userSpaceOnUse"><g transform="translate(-249.52 -116)"><g class="cls-5"><path class="cls-6" d="M438.29,353.54c1.1-49.5-30.24-90.19-70.1-91.08s-72.88,38.34-74,87.85c-1.1,49.25,30.24,89.9,70,90.79S437.18,402.77,438.29,353.54Z"/></g></g></mask><radialGradient id="radial-gradient-7" cx="316.42" cy="190.92" r="62.17" gradientTransform="matrix(1.16, 0.03, -0.03, 1.44, 5.58, 69.44)" xlink:href="#radial-gradient-5"/><radialGradient id="radial-gradient-8" cx="427.3" cy="283.99" r="136.63" gradientTransform="translate(5.31 -16.47) rotate(1.28)" gradientUnits="userSpaceOnUse"><stop offset="0" stop-color="#fff"/><stop offset="0.36" stop-color="#f2f2f2"/><stop offset="1" stop-color="#d1d2d2"/></radialGradient><mask id="mask-8" x="59.95" y="108.07" width="152.3" height="117.04" maskUnits="userSpaceOnUse"><g transform="translate(-249.52 -116)"><g class="cls-7"><path class="cls-8" d="M461.76,284.28C462.48,252,429,225,386.92,224.1s-76.73,24.46-77.44,56.77,32.77,59.28,74.82,60.22S461,316.63,461.76,284.28Z"/></g></g></mask><radialGradient id="radial-gradient-9" cx="321.22" cy="312.7" r="53.88" gradientTransform="matrix(1.41, 0.03, -0.02, 1.09, -60.76, -66.93)" gradientUnits="userSpaceOnUse"><stop offset="0" stop-color="#221f1f"/><stop offset="0.1" stop-color="#2e2b2b"/><stop offset="0.27" stop-color="#4d4b4b"/><stop offset="0.51" stop-color="#807e7e"/><stop offset="0.78" stop-color="#c5c4c4"/><stop offset="1" stop-color="#fff"/></radialGradient><radialGradient id="radial-gradient-10" cx="666.92" cy="269.03" r="129.46" gradientTransform="matrix(0.74, 0.02, -0.02, 1, -48.01, -17.45)" gradientUnits="userSpaceOnUse"><stop offset="0" stop-color="#f3f3f1"/><stop offset="1" stop-color="#dadbd9"/></radialGradient><radialGradient id="radial-gradient-11" cx="416.49" cy="290.57" r="119.11" gradientTransform="translate(5.31 -16.47) rotate(1.28)" gradientUnits="userSpaceOnUse"><stop offset="0" stop-color="#fff"/><stop offset="0.68" stop-color="#f2f2f2"/><stop offset="1" stop-color="#ebebea"/></radialGradient><linearGradient id="linear-gradient" x1="535.79" y1="222.64" x2="539.21" y2="222.64" gradientTransform="matrix(-1, 0, 0, 1, 692.73, -116)" gradientUnits="userSpaceOnUse"><stop offset="0" stop-color="#c2c2c1"/><stop offset="0.27" stop-color="#d4d4d2"/><stop offset="0.72" stop-color="#ebebe9"/><stop offset="1" stop-color="#f3f3f1"/></linearGradient><radialGradient id="radial-gradient-12" cx="538.08" cy="223.35" r="3.08" gradientTransform="matrix(-1, 0, 0, 1, 692.73, -116)" gradientUnits="userSpaceOnUse"><stop offset="0.04" stop-color="#c8cedc"/><stop offset="0.21" stop-color="#c3cbd9"/><stop offset="0.41" stop-color="#b5c2d0"/><stop offset="0.63" stop-color="#9db4c2"/><stop offset="0.85" stop-color="#7da0ae"/><stop offset="0.97" stop-color="#6893a1"/></radialGradient></defs><title>cloud_1</title><g class="cls-9"><g id="Layer_1" data-name="Layer 1"><g class="cls-10"><g class="cls-11"><path class="cls-12" d="M393.62,354.58c0.68-30.64-31-56.11-70.86-57s-72.54,23.12-73.23,53.77c-0.68,30.48,31,55.93,70.78,56.82S392.93,385.06,393.62,354.58Z" transform="translate(-249.52 -116)"/></g><g class="cls-13"><path class="cls-14" d="M474.61,354.34c0.68-30.65-31-56.11-70.86-57s-72.54,23.11-73.23,53.76c-0.68,30.48,31,55.92,70.77,56.82S473.93,384.81,474.61,354.34Z" transform="translate(-249.52 -116)"/></g><g class="cls-15"><path class="cls-16" d="M438.29,353.54c1.1-49.5-30.24-90.19-70.1-91.08s-72.88,38.34-74,87.85c-1.1,49.25,30.24,89.9,70,90.79S437.18,402.77,438.29,353.54Z" transform="translate(-249.52 -116)"/></g></g><path class="cls-17" d="M491.41,260.82a30.9,30.9,0,0,0-21.29-9.67,22.77,22.77,0,0,0-19.86-14.39A15.24,15.24,0,0,0,426.92,224a26.76,26.76,0,0,0-20.1-9.76h-1l-0.62,0A26.91,26.91,0,0,0,384.65,223a15.27,15.27,0,0,0-23.93,11.71,22.81,22.81,0,0,0-20.48,13.5,31.18,31.18,0,0,0-.82,62.34,31.32,31.32,0,0,0,3.49-.12,18.12,18.12,0,0,0,31.78,9.83,39.4,39.4,0,0,0,57.81,1.28,18.11,18.11,0,0,0,32.18-8.39,28.82,28.82,0,0,0,3.47.28,31.2,31.2,0,0,0,31.79-30.53A30.87,30.87,0,0,0,491.41,260.82Zm-23.22,51.67a31,31,0,0,1-3.86-.33l-0.5-.08-0.06.51a17.12,17.12,0,0,1-30.83,8l-0.34-.48-0.41.44a38.45,38.45,0,0,1-57.13-1.27l-0.38-.45-0.38.46a17.11,17.11,0,0,1-30.43-9.34l-0.05-.51-0.5.06a31.12,31.12,0,0,1-3.86.17,30.19,30.19,0,0,1,1.11-60.36h0.32L341,249a21.75,21.75,0,0,1,20.18-13.2h0.48l0-.49a14.27,14.27,0,0,1,22.73-11.15l0.37,0.27,0.3-.35a25.9,25.9,0,0,1,20.1-8.85l0.58,0h1A25.77,25.77,0,0,1,426.43,225l0.29,0.36,0.38-.25a14.25,14.25,0,0,1,22.17,12.16v0.48l0.49,0a21.74,21.74,0,0,1,19.57,14.09l0.12,0.31h0.33A30.19,30.19,0,0,1,468.19,312.49Z" transform="translate(-249.52 -116)"/><path class="cls-18" d="M469.77,251.64a22.29,22.29,0,0,0-20-14.42h0a14.75,14.75,0,0,0-23-12.57,26.24,26.24,0,0,0-20-9.93H406l-0.8,0a26.37,26.37,0,0,0-20.47,9,14.77,14.77,0,0,0-23.52,11.53h0a22.29,22.29,0,0,0-20.63,13.5,30.68,30.68,0,0,0-1.13,61.35,30.06,30.06,0,0,0,3.92-.17,17.62,17.62,0,0,0,31.32,9.61,38.92,38.92,0,0,0,57.87,1.29,17.61,17.61,0,0,0,31.71-8.19,33.52,33.52,0,0,0,3.91.35A30.69,30.69,0,0,0,469.77,251.64Z" transform="translate(-249.52 -116)"/><g class="cls-19"><path class="cls-20" d="M461.76,284.28C462.48,252,429,225,386.92,224.1s-76.73,24.46-77.44,56.77,32.77,59.28,74.82,60.22S461,316.63,461.76,284.28Z" transform="translate(-249.52 -116)"/></g><path class="cls-17" d="M465.22,260.4c-3.92-5.95-9.24-9.3-15-9.46-2.28-8.44-7.78-14-14.09-14.31,0-8.32-4.72-15-10.56-15a8.66,8.66,0,0,0-6,2.61c-3.58-6.06-8.81-9.51-14.4-9.51h-0.44l-0.37,0-0.16,120.59h0.22c7.53,0.17,14.77-4.38,19.92-12.49,2.32,4.41,5.79,7,9.58,7.06,6.3,0.13,11.62-6.67,12.49-15.86a14.92,14.92,0,0,0,2.5.27c11.79,0.21,21.7-13.89,22.09-31.48C471.22,274.38,469.16,266.42,465.22,260.4Z" transform="translate(-249.52 -116)"/><path class="cls-17" d="M404.48,214.71h-0.43c-5.58,0-10.85,3.45-14.45,9.46a8.75,8.75,0,0,0-6-2.6c-5.85,0-10.56,6.62-10.6,14.85-6.33.23-11.85,5.68-14.16,14-5.73.07-11.05,3.3-15,9.05s-6,13.53-5.88,21.76c0.34,17.16,10.21,31.29,22,31.49a14.27,14.27,0,0,0,2.5-.17c0.85,9.08,6.16,16,12.45,16.12,3.78,0.08,7.28-2.33,9.62-6.59,5.16,8.27,12.42,13.11,19.94,13.27h0.23l0.18-120.6Z" transform="translate(-249.52 -116)"/><path class="cls-21" d="M424.39,322.3c2.17,4.33,5.64,7.17,9.56,7.25,6.28,0.14,11.54-6.84,12.29-15.89A15,15,0,0,0,449,314c11.68,0.22,21.47-13.72,21.85-31.14s-8.88-31.33-20.71-31.54c-2.18-8.27-7.64-14.15-14.17-14.32h0c0.09-8.3-4.53-15-10.32-15a8.58,8.58,0,0,0-6,2.72C416.15,218.77,411,215,405.2,215l-0.57,0L404.45,335C412.33,335.16,419.44,330.26,424.39,322.3Z" transform="translate(-249.52 -116)"/><path class="cls-22" d="M404,215c-5.79,0-11,3.73-14.42,9.58a8.59,8.59,0,0,0-6.07-2.71c-5.8,0-10.45,6.64-10.37,14.84h0c-6.54.12-12,5.86-14.23,14-11.84,0-21.13,13.65-20.8,30.5,0.34,17,10.08,30.95,21.76,31.16a16.13,16.13,0,0,0,2.7-.2c0.72,8.93,6,16,12.25,16.15,3.92,0.08,7.41-2.58,9.62-6.78,4.95,8.09,12.07,13.28,19.95,13.46L404.63,215Z" transform="translate(-249.52 -116)"/><path class="cls-23" d="M405.54,214.28a0.79,0.79,0,0,0-.79-0.79h0a0.79,0.79,0,0,0-.79.79v7.57a0.8,0.8,0,0,0,.79.79h0a0.79,0.79,0,0,0,.79-0.79v-7.57Z" transform="translate(-249.52 -116)"/><circle class="cls-24" cx="155.23" cy="106.64" r="1.71"/><ellipse class="cls-25" cx="155.23" cy="106.64" rx="1.48" ry="1.47"/><path class="cls-26" d="M405,222.64a0.49,0.49,0,0,0,.53-0.45V116.62a0.49,0.49,0,0,0-.53-0.45c-0.29,0-.53-0.33-0.53-0.08V222.2A0.49,0.49,0,0,0,405,222.64Z" transform="translate(-249.52 -116)"/><path class="cls-26" d="M398.73,211.34a2.1,2.1,0,0,1,0-2.4,1,1,0,0,1,.78-0.52c1.68-.2,5.13,3.41,5.52,3.83a0.34,0.34,0,0,1,.09.23,13.12,13.12,0,0,0,1.33-.15c2.09-.36,3.46-1.18,3.75-2.24a0.36,0.36,0,0,1,.43-0.24,0.35,0.35,0,0,1,.24.43c-0.37,1.33-1.94,2.34-4.31,2.74a13.55,13.55,0,0,1-2.26.19C402,213.2,399.62,212.61,398.73,211.34Zm0.86-2.24a0.34,0.34,0,0,0-.25.18,1.44,1.44,0,0,0,0,1.66c0.68,1,2.75,1.57,5,1.57-1.37-1.42-3.64-3.4-4.64-3.4h-0.08Z" transform="translate(-249.52 -116)"/></g></g></svg>