<svg id="Layer_1" data-name="Layer 1" xmlns="http://www.w3.org/2000/svg" viewBox="0 0 29.71 29.71"><defs><style>.cls-1{fill:#2fbcae;}</style></defs><title>fb</title><path class="cls-1" d="M-182.46-69.57H-200a6.1,6.1,0,0,0-6.1,6.1V-46a6.1,6.1,0,0,0,6.1,6.1h5.76V-51.63h-4.06v-4.59h4.06v-3.24h0c0-3.11,1.14-4.17,1.14-4.17a5.56,5.56,0,0,1,4.23-2.08h4.11v4.32h-2.74a1.88,1.88,0,0,0-2.05,1.93h0v3.24h4.59l-0.56,4.59h-4v11.77h7.06a6.1,6.1,0,0,0,6.1-6.1v-17.5A6.1,6.1,0,0,0-182.46-69.57Z" transform="translate(206.06 69.57)"/></svg>