<svg id="Layer_1" data-name="Layer 1" xmlns="http://www.w3.org/2000/svg" viewBox="0 0 142.46 62.03"><defs><style>.cls-1{fill:#fff;}</style></defs><title>logo</title><polygon class="cls-1" points="23.04 7.08 15.32 7.08 15.32 25.25 8.32 25.25 8.32 7.08 0.59 7.08 0 7.08 0 0.71 23.64 0.71 23.64 7.08 23.04 7.08"/><polygon class="cls-1" points="80.94 43.85 73.21 43.85 73.21 62.03 66.21 62.03 66.21 43.85 58.49 43.85 57.89 43.85 57.89 37.48 81.53 37.48 81.53 43.85 80.94 43.85"/><polygon class="cls-1" points="31.08 25.25 31.08 0.71 50.56 0.71 50.56 6.85 37.56 6.85 37.56 10.06 46.37 10.06 46.37 15.56 37.56 15.56 37.56 19.07 50.56 19.07 50.56 25.25 31.08 25.25"/><polygon class="cls-1" points="31.08 43.71 31.08 19.16 50.56 19.16 50.56 25.31 37.56 25.31 37.56 28.51 46.37 28.51 46.37 34.02 37.56 34.02 37.56 37.52 50.56 37.52 50.56 43.71 31.08 43.71"/><polygon class="cls-1" points="31.08 62.03 31.08 37.48 50.56 37.48 50.56 43.63 37.56 43.63 37.56 46.83 46.37 46.83 46.37 52.34 37.56 52.34 37.56 55.84 50.56 55.84 50.56 62.03 31.08 62.03"/><path class="cls-1" d="M73.31,25.25l-3.87-7.49H65.08v7.49H57.89V0.71H70.7A6.86,6.86,0,0,1,72.47,1a9.33,9.33,0,0,1,1.77.67,8.4,8.4,0,0,1,1.58,1A6.7,6.7,0,0,1,77.07,4a7.62,7.62,0,0,1,1,2,7.43,7.43,0,0,1,.34,2.2,7.23,7.23,0,0,1-.82,3.37,7.87,7.87,0,0,1-2.24,2.66l5.74,11H73.31ZM68.69,6.44H65.08v4.69h3.61a2.32,2.32,0,0,0,1.68-.69,2.26,2.26,0,0,0,.71-1.67,2.2,2.2,0,0,0-.71-1.65,2.35,2.35,0,0,0-1.68-.68"/><path class="cls-1" d="M129.43,26a12.7,12.7,0,0,1-5.06-1,13.3,13.3,0,0,1-4.15-2.78,12.92,12.92,0,0,1-2.79-4.13,12.67,12.67,0,0,1-1-5.06,12.55,12.55,0,0,1,1-5A13.09,13.09,0,0,1,124.36,1a13,13,0,0,1,10.13,0,13.3,13.3,0,0,1,4.15,2.77,12.92,12.92,0,0,1,2.79,4.13,12.68,12.68,0,0,1,1,5.07,12.67,12.67,0,0,1-1,5.06,12.92,12.92,0,0,1-2.79,4.13A13.3,13.3,0,0,1,134.49,25a12.7,12.7,0,0,1-5.07,1m0-19.26a5.6,5.6,0,0,0-2.36.5,6,6,0,0,0-1.9,1.36,6.45,6.45,0,0,0-1.26,2,6.4,6.4,0,0,0,0,4.79,6.7,6.7,0,0,0,1.26,2,5.81,5.81,0,0,0,1.9,1.37,5.8,5.8,0,0,0,4.71,0,5.83,5.83,0,0,0,1.9-1.37,6.61,6.61,0,0,0,1.24-6.8,6.24,6.24,0,0,0-1.24-2,6,6,0,0,0-1.9-1.36,5.6,5.6,0,0,0-2.36-.5"/><polygon class="cls-1" points="16.75 62.03 16.75 50.56 12.98 57.93 11.01 57.93 6.93 50.56 6.93 62.03 0 62.03 0 37.48 6.18 37.48 11.98 46.87 17.46 37.48 23.64 37.48 23.64 62.03 16.75 62.03"/><polygon class="cls-1" points="103.65 25.27 103.65 13.8 99.89 21.17 97.91 21.17 93.83 13.8 93.83 25.27 86.9 25.27 86.9 0.73 93.09 0.73 98.88 10.11 104.36 0.73 110.55 0.73 110.55 25.27 103.65 25.27"/><path class="cls-1" d="M104.46,62l-3.87-7.49H96.22V62H89V37.48h12.81a6.87,6.87,0,0,1,1.77.24,9.35,9.35,0,0,1,1.77.67,8.4,8.4,0,0,1,1.58,1,6.7,6.7,0,0,1,1.25,1.34,7.57,7.57,0,0,1,1,2,7.4,7.4,0,0,1,.33,2.2,7.23,7.23,0,0,1-.82,3.37A7.87,7.87,0,0,1,106.47,51l5.74,11h-7.75ZM99.84,43.22H96.22v4.69h3.61a2.32,2.32,0,0,0,1.68-.69,2.26,2.26,0,0,0,.71-1.67,2.2,2.2,0,0,0-.71-1.65,2.35,2.35,0,0,0-1.68-.68"/><polygon class="cls-1" points="139.15 43.85 139.15 37.48 133.02 37.48 125.83 37.48 119.7 37.48 119.7 43.85 125.83 43.85 125.83 55.66 119.7 55.66 119.7 62.03 125.83 62.03 133.02 62.03 139.15 62.03 139.15 55.66 133.02 55.66 133.02 43.85 139.15 43.85"/></svg>