<svg id="Layer_1" data-name="Layer 1" xmlns="http://www.w3.org/2000/svg" viewBox="0 0 278.05 300"><defs><style>.cls-1{fill:#fff;}</style></defs><title>rainy</title><path class="cls-1" d="M339.08,329.69l-4,0-1.88,0H204c-0.83,0-1.58,0-2.31,0s-1.57,0-2.45-.05l-0.87,0a57.65,57.65,0,0,1-13.07-112.81,76.12,76.12,0,0,1,132.56-22A68.61,68.61,0,0,1,404.27,261a69.5,69.5,0,0,1-.57,8.83L403,275.6H367.24ZM199.84,316.44c0.69,0,1.3,0,1.88,0s1.2,0,1.9,0H331.13l28.11-54h31.84q0-.7,0-1.41a55.5,55.5,0,0,0-73.64-52.41l-4.8,1.67L309.82,206A62.94,62.94,0,0,0,196.89,224l-1.06,3.79-3.84.86a44.47,44.47,0,0,0,7.14,87.78Z" transform="translate(-144.08 -164.89)"/><path class="cls-1" d="M192.57,411.55h0a25,25,0,0,1-9.72-2c-12.43-5.21-18.62-20.25-13.51-32.83,1.51-3.71,5.11-7.82,11.33-12.91l0.24-.2,0.26-.22,0.27-.18,28.68-19.85,7.19,35.24,0,0.39c0.25,2.95.57,8.36,0,11.47a28,28,0,0,1-1.51,5.58A25.09,25.09,0,0,1,192.57,411.55Zm-3.4-37.63L189,374c-6.44,5.28-7.43,7.58-7.47,7.68a12.41,12.41,0,0,0,6.39,15.72A12,12,0,0,0,203.62,391a24.49,24.49,0,0,0,.74-3.06,39.89,39.89,0,0,0-.13-7.44l-3-14.92Z" transform="translate(-144.08 -164.89)"/><path class="cls-1" d="M212.34,464.89h0a21.37,21.37,0,0,1-8.3-1.68,21.91,21.91,0,0,1-11.55-28c1.3-3.19,4.31-6.65,9.47-10.88l0.18-.14,0.24-.21,24.92-17.25L233.5,437l0,0.39a40.73,40.73,0,0,1-.06,9.57,24.23,24.23,0,0,1-1.29,4.73A21.44,21.44,0,0,1,212.34,464.89Zm-7.65-24.75c-1.48,3.66.11,9.1,4.44,10.92A8.31,8.31,0,0,0,220,446.63a19.25,19.25,0,0,0,.53-2.21,32.69,32.69,0,0,0-.11-5.57l-2-10-8,5.54-0.08.07C205.66,438.29,204.76,440,204.69,440.14Z" transform="translate(-144.08 -164.89)"/><path class="cls-1" d="M279.67,428.91h0a33.52,33.52,0,0,1-13-2.63,33.15,33.15,0,0,1-18-18.67,34.42,34.42,0,0,1-.1-25.36c2-4.87,7.1-10.65,15.66-17.66l0.39-.32,0.26-.22,0.27-.19,38.12-26.39,9.56,46.81,0,0.39c0.6,7.17.6,12.82,0,15.92a38.15,38.15,0,0,1-2,7.57A33.72,33.72,0,0,1,279.67,428.91Zm-6.81-54.38-0.31.25c-9.39,7.69-11.41,11.46-11.8,12.42-4.13,10.16,1,22.74,11,26.92a20.52,20.52,0,0,0,26.9-11A34.59,34.59,0,0,0,299.9,398c0.16-.82.44-4.52-0.16-11.87l-5.41-26.49Z" transform="translate(-144.08 -164.89)"/><path class="cls-1" d="M355.48,411.7a6.59,6.59,0,0,1-6.35-8.33l15.76-57.5a0.53,0.53,0,0,0-.08-0.42v0a0.43,0.43,0,0,0-.35-0.16H326.33a6.59,6.59,0,0,1-5.84-9.63L357.28,265a6.59,6.59,0,0,1,5.84-3.55H403a6.59,6.59,0,0,1,5.95,9.42l-24,50.55a0.54,0.54,0,0,0,0,.47,0.48,0.48,0,0,0,.4.21h30.21a6.59,6.59,0,0,1,5.18,10.66l-60.06,76.45A6.59,6.59,0,0,1,355.48,411.7Zm19.85-74.19a13.75,13.75,0,0,1,2.28,11.84l-7.14,26L402,335.25H385.33a13.6,13.6,0,0,1-11.54-6.35l0,0a13.64,13.64,0,0,1-.77-13.11l19.56-41.14H367.12L337.19,332.1h27.27a13.68,13.68,0,0,1,10.87,5.4h0Z" transform="translate(-144.08 -164.89)"/></svg>