<svg id="Layer_1" data-name="Layer 1" xmlns="http://www.w3.org/2000/svg" viewBox="0 0 25.95 28"><defs><style>.cls-1{fill:#e0e1e0;}</style></defs><title>rainy-grey</title><path class="cls-1" d="M373.21,148.29H360.08a5.38,5.38,0,0,1-1.22-10.53,7.1,7.1,0,0,1,12.37-2.06,6.4,6.4,0,0,1,8.06,6.19,6.49,6.49,0,0,1-.05.82l-0.07.54h-3.34Zm-13-1.24h12.25l2.62-5h3s0-.09,0-0.13a5.18,5.18,0,0,0-6.87-4.89l-0.45.16-0.26-.39a5.87,5.87,0,0,0-10.54,1.67l-0.1.35-0.36.08a4.15,4.15,0,0,0,.67,8.19h0.07Z" transform="translate(-355.01 -132.91)"/><path class="cls-1" d="M359.53,155.93h0a2.33,2.33,0,0,1-.91-0.18,2.39,2.39,0,0,1-1.26-3.06,3.42,3.42,0,0,1,1.06-1.2l0,0,0,0,0,0,2.68-1.85,0.67,3.29v0a4.76,4.76,0,0,1,0,1.07,2.61,2.61,0,0,1-.14.52A2.34,2.34,0,0,1,359.53,155.93Zm-0.32-3.51h0a2.49,2.49,0,0,0-.7.72,1.16,1.16,0,0,0,.6,1.47,1.12,1.12,0,0,0,1.46-.6,2.29,2.29,0,0,0,.07-0.29,3.72,3.72,0,0,0,0-.69l-0.28-1.39Z" transform="translate(-355.01 -132.91)"/><path class="cls-1" d="M361.38,160.91h0a2,2,0,0,1-.78-0.16,2,2,0,0,1-1.08-2.62,2.85,2.85,0,0,1,.88-1h0l0,0,2.33-1.61,0.58,2.83v0a3.8,3.8,0,0,1,0,.89,2.26,2.26,0,0,1-.12.44A2,2,0,0,1,361.38,160.91Zm-0.71-2.31a0.82,0.82,0,0,0,.41,1,0.78,0.78,0,0,0,1-.41,1.8,1.8,0,0,0,0-.21,3.05,3.05,0,0,0,0-.52l-0.19-.93-0.75.52h0A2.09,2.09,0,0,0,360.66,158.6Z" transform="translate(-355.01 -132.91)"/><path class="cls-1" d="M367.66,157.55h0a3.13,3.13,0,0,1-1.22-.25,3.09,3.09,0,0,1-1.68-1.74,3.21,3.21,0,0,1,0-2.37,4.84,4.84,0,0,1,1.46-1.65l0,0,0,0,0,0,3.56-2.46,0.89,4.37v0a6.25,6.25,0,0,1,0,1.49,3.56,3.56,0,0,1-.19.71A3.15,3.15,0,0,1,367.66,157.55ZM367,152.48l0,0a3.75,3.75,0,0,0-1.1,1.16,2,2,0,0,0,1,2.51,1.91,1.91,0,0,0,2.51-1,3.23,3.23,0,0,0,.12-0.47,5.42,5.42,0,0,0,0-1.11l-0.5-2.47Z" transform="translate(-355.01 -132.91)"/><path class="cls-1" d="M374.74,155.95a0.61,0.61,0,0,1-.59-0.78l1.47-5.37a0,0,0,0,0,0,0H372a0.61,0.61,0,0,1-.55-0.9l3.43-6.6a0.61,0.61,0,0,1,.55-0.33h3.72a0.61,0.61,0,0,1,.56.88l-2.24,4.72a0.05,0.05,0,0,0,0,0l0,0h2.82a0.61,0.61,0,0,1,.48,1l-5.61,7.14A0.61,0.61,0,0,1,374.74,155.95Zm1.85-6.92a1.28,1.28,0,0,1,.21,1.1l-0.67,2.43,2.94-3.75h-1.55a1.27,1.27,0,0,1-1.08-.59h0a1.27,1.27,0,0,1-.07-1.22l1.83-3.84h-2.37L373,148.52h2.54a1.28,1.28,0,0,1,1,.5h0Z" transform="translate(-355.01 -132.91)"/></svg>