<svg id="Layer_1" data-name="Layer 1" xmlns="http://www.w3.org/2000/svg" viewBox="0 0 30 30"><defs><style>.cls-1{fill:#fff;}</style></defs><title>search</title><path class="cls-1" d="M844.85-27.55a11.15,11.15,0,0,0,1.57-5.74,11.15,11.15,0,0,0-3.29-7.93,11.15,11.15,0,0,0-7.93-3.29,11.15,11.15,0,0,0-7.93,3.29A11.15,11.15,0,0,0,824-33.29a11.15,11.15,0,0,0,3.29,7.93,11.15,11.15,0,0,0,7.93,3.29,11.15,11.15,0,0,0,5.74-1.57L842-22.56l3.91-3.91Zm-3.52.39a8.67,8.67,0,0,1-12.25,0,8.67,8.67,0,0,1,0-12.25,8.67,8.67,0,0,1,12.25,0A8.67,8.67,0,0,1,841.33-27.16Z" transform="translate(-823.99 44.51)"/><path class="cls-1" d="M853.32-18.44l-7.1-6.36,0,0-2.51,2.51,0,0,6.36,7.1a2.3,2.3,0,0,0,3.26,0A2.3,2.3,0,0,0,853.32-18.44Z" transform="translate(-823.99 44.51)"/><path class="cls-1" d="M837-40.9a5.57,5.57,0,0,0-2.43,0A0.77,0.77,0,0,0,834-40a0.77,0.77,0,0,0,.94.53s2.93-.76,5.55,2.62a0.77,0.77,0,0,0,1.08.14l0.07-.06a0.77,0.77,0,0,0,.06-1A8,8,0,0,0,837-40.9Z" transform="translate(-823.99 44.51)"/></svg>