<svg id="Layer_1" data-name="Layer 1" xmlns="http://www.w3.org/2000/svg" viewBox="0 0 56.29 65"><defs><style>.cls-1{fill:#2fbcae;}</style></defs><title>snow-green</title><path class="cls-1" d="M428.14,338.88v-4.11l-5-2.91-3.55,2.05-2.78-1.61,5.43-3.13v-1.54l-1.33-.77-6.76,3.9-3.41-2V322l2.08-1.2h0l1.33-.77,6.76,3.9,1.33-.77v-1.54l-5.43-3.13L419.4,317l3.86,2.23,5-2.91v-4.45l2-1.15v-1.54l-1.33-.77-2.14,1.24-3.55-2.05-5,2.91v4.11l-2.78,1.61v-6.27l-1.33-.77-1.33.77v7.8l-1.33.77-2.08,1.2-5.9-3.41v-3.93l6.76-3.9v-1.54l-1.33-.77-5.43,3.13v-3.21L407,304V298.2l-3.56-2.05v-2.48l-1.33-.77-1.33.77V296L397,298.2V304l3.86,2.23v3l-5.43-3.13-1.33.77v1.54l6.76,3.9v3.93l-5.9,3.41-2.08-1.2-1.33-.77v-7.8l-1.33-.77-1.33.77v6.27l-2.78-1.61v-4.11l-5-2.91-3.56,2.05-2.14-1.24-1.33.77v1.54l2,1.15v4.45l5,2.91,3.86-2.23,2.63,1.52-5.43,3.13v1.54l1.33,0.77,6.76-3.9,1.33,0.77h0l2.08,1.2v6.81l-3.41,2-6.76-3.9-1.33.77v1.54l5.43,3.13-2.78,1.61-3.56-2.05-5,2.91v4.1L374,340.12v1.54l1.33,0.77,2-1.15,3.86,2.23,5-2.91v-4.45l2.63-1.52v6.27l1.33,0.77,1.33-.77v-7.8l1.33-.77,2.08-1.2,5.9,3.41v3.93l-6.76,3.9v1.54l1.33,0.77,5.43-3.13v3L397,346.79v5.81l3.86,2.23v2.3l1.33,0.77,1.33-.77v-2.48l3.56-2.05v-5.81l-3.56-2.05v-3.21l5.43,3.13,1.33-.77v-1.54l-6.76-3.9v-3.93l5.9-3.41,2.08,1.2,1.33,0.77v7.8l1.33,0.77,1.33-.77v-6.27l2.63,1.52v4.45l5,2.91,3.86-2.23,2,1.15,1.33-.77v-1.54Zm-7.49-27,2.6-1.5,2.6,1.5v3l-2.6,1.5-2.6-1.5v-3Zm-37,3-2.6,1.5-2.6-1.5v-3l2.6-1.5,2.6,1.5v3Zm0.15,24.3-2.6,1.5-2.6-1.5v-3l2.6-1.5,2.6,1.5v3Zm20.82,9v3l-2.6,1.5-2.6-1.5v-3l2.6-1.5ZM402,304.11l-2.6-1.5v-3l2.6-1.5,2.6,1.5v3Zm23.72,35.07-2.6,1.5-2.6-1.5v-3l2.6-1.5,2.6,1.5v3Z" transform="translate(-373.99 -292.9)"/></svg>