<svg id="Layer_1" data-name="Layer 1" xmlns="http://www.w3.org/2000/svg" viewBox="0 0 65 65"><defs><style>.cls-1{fill:#ef486f;}</style></defs><title>sun-pink</title><path class="cls-1" d="M346.37,203.69A16.33,16.33,0,1,0,362.7,220,16.33,16.33,0,0,0,346.37,203.69Zm0,28.29a12,12,0,1,1,12-12A12,12,0,0,1,346.37,232Z" transform="translate(-313.86 -187.31)"/><path class="cls-1" d="M346.37,238.37a2.71,2.71,0,0,0-2.52,2.87v8.2a2.54,2.54,0,1,0,5,0v-8.2A2.71,2.71,0,0,0,346.37,238.37Z" transform="translate(-313.86 -187.31)"/><path class="cls-1" d="M346.37,201.26a2.71,2.71,0,0,0,2.52-2.87v-8.2a2.54,2.54,0,1,0-5,0v8.2A2.71,2.71,0,0,0,346.37,201.26Z" transform="translate(-313.86 -187.31)"/><path class="cls-1" d="M329.43,233.19l-5.8,5.8a2.54,2.54,0,1,0,3.56,3.56l5.8-5.8A2.54,2.54,0,1,0,329.43,233.19Z" transform="translate(-313.86 -187.31)"/><path class="cls-1" d="M363.3,206.44l5.8-5.8a2.54,2.54,0,1,0-3.56-3.56l-5.8,5.8A2.54,2.54,0,1,0,363.3,206.44Z" transform="translate(-313.86 -187.31)"/><path class="cls-1" d="M327.81,219.81a2.71,2.71,0,0,0-2.87-2.52h-8.2a2.54,2.54,0,1,0,0,5h8.2A2.71,2.71,0,0,0,327.81,219.81Z" transform="translate(-313.86 -187.31)"/><path class="cls-1" d="M376,217.3h-8.2a2.54,2.54,0,1,0,0,5H376A2.54,2.54,0,1,0,376,217.3Z" transform="translate(-313.86 -187.31)"/><path class="cls-1" d="M329.43,206.44a2.54,2.54,0,1,0,3.56-3.56l-5.8-5.8a2.54,2.54,0,1,0-3.56,3.56Z" transform="translate(-313.86 -187.31)"/><path class="cls-1" d="M363.3,233.19a2.54,2.54,0,1,0-3.56,3.56l5.8,5.8A2.54,2.54,0,1,0,369.1,239Z" transform="translate(-313.86 -187.31)"/></svg>