<svg id="Layer_1" data-name="Layer 1" xmlns="http://www.w3.org/2000/svg" viewBox="0 0 200 200"><defs><style>.cls-1{fill:#e0e1e0;}</style></defs><title>user-grey</title><path class="cls-1" d="M313.49-77.49a100.11,100.11,0,0,1-100-100,100.11,100.11,0,0,1,100-100,100.11,100.11,0,0,1,100,100A100.11,100.11,0,0,1,313.49-77.49Zm0-190.3a90.41,90.41,0,0,0-90.3,90.3,90.41,90.41,0,0,0,90.3,90.3,90.41,90.41,0,0,0,90.3-90.3A90.41,90.41,0,0,0,313.49-267.8Z" transform="translate(-213.49 277.49)"/><circle class="cls-1" cx="100" cy="76.39" r="38.21"/><path class="cls-1" d="M313.49-82.34A94.78,94.78,0,0,0,377-106.62a66.19,66.19,0,0,0-63.47-47.46A66.19,66.19,0,0,0,250-106.62,94.78,94.78,0,0,0,313.49-82.34Z" transform="translate(-213.49 277.49)"/></svg>