<svg id="Layer_1" data-name="Layer 1" xmlns="http://www.w3.org/2000/svg" viewBox="0 0 50 50"><defs><style>.cls-1{fill:#fff;}</style></defs><title>user</title><path class="cls-1" d="M458.49-64a25,25,0,0,1-25-25,25,25,0,0,1,25-25,25,25,0,0,1,25,25A25,25,0,0,1,458.49-64Zm0-47.58A22.6,22.6,0,0,0,435.92-89a22.6,22.6,0,0,0,22.58,22.58A22.6,22.6,0,0,0,481.07-89,22.6,22.6,0,0,0,458.49-111.58Z" transform="translate(-433.49 114)"/><circle class="cls-1" cx="25" cy="19.1" r="9.55"/><path class="cls-1" d="M458.49-65.21a23.7,23.7,0,0,0,15.87-6.07,16.55,16.55,0,0,0-15.87-11.87,16.55,16.55,0,0,0-15.87,11.87A23.7,23.7,0,0,0,458.49-65.21Z" transform="translate(-433.49 114)"/></svg>