<svg id="Layer_1" data-name="Layer 1" xmlns="http://www.w3.org/2000/svg" viewBox="0 0 178.17 15"><defs><style>.cls-1{fill:#383d43;}</style></defs><title>webber</title><polygon class="cls-1" points="168.73 0.57 168.73 2.69 176.47 7.49 168.73 12.3 168.73 14.41 178.16 8.56 178.16 8.54 178.16 6.44 178.16 6.43 168.73 0.57"/><polygon class="cls-1" points="0 6.44 0 8.54 0 8.56 9.43 14.41 9.43 12.3 1.69 7.49 9.43 2.69 9.43 0.57 0 6.43 0 6.44"/><path class="cls-1" d="M128.8,179.77V169.1h-4.54v1.81H127v8.86c0,3,2.19,4.32,4.89,4.32v-1.81C130.18,182.28,128.8,181.73,128.8,179.77Z" transform="translate(-99.92 -169.1)"/><path class="cls-1" d="M136.89,179.77V169.1h-4.54v1.81h2.73v8.86c0,3,2.19,4.32,4.89,4.32v-1.81C138.27,182.28,136.89,181.73,136.89,179.77Z" transform="translate(-99.92 -169.1)"/><path class="cls-1" d="M154,173.38a5.38,5.38,0,1,0,4.89,5.35A5.14,5.14,0,0,0,154,173.38Zm0,8.9a3.58,3.58,0,1,1,3.08-3.54A3.34,3.34,0,0,1,154,182.28Z" transform="translate(-99.92 -169.1)"/><path class="cls-1" d="M217.22,173.38a4.62,4.62,0,0,0-3.08,1.2V169.1h-1.81v15h1.81v-1.2a4.62,4.62,0,0,0,3.08,1.2A5.38,5.38,0,0,0,217.22,173.38Zm0,8.9a3.58,3.58,0,1,1,3.08-3.54A3.34,3.34,0,0,1,217.22,182.28Z" transform="translate(-99.92 -169.1)"/><path class="cls-1" d="M230.19,173.38a4.62,4.62,0,0,0-3.08,1.2V169.1H225.3v15h1.81v-1.2a4.62,4.62,0,0,0,3.08,1.2A5.38,5.38,0,0,0,230.19,173.38Zm0,8.9a3.58,3.58,0,1,1,3.08-3.54A3.34,3.34,0,0,1,230.19,182.28Z" transform="translate(-99.92 -169.1)"/><polygon class="cls-1" points="157.64 14.99 159.45 14.99 165.67 0 163.86 0 157.64 14.99"/><polygon class="cls-1" points="92.03 12.68 90.2 8.75 90.16 8.75 88.39 8.75 88.35 8.75 86.51 12.67 84.11 4.78 82.3 4.78 85.41 14.99 85.43 14.99 87.22 14.99 87.24 14.99 89.27 10.65 91.3 14.99 91.33 14.99 93.11 14.99 93.14 14.99 96.25 4.78 94.44 4.78 92.03 12.68"/><path class="cls-1" d="M117.3,173.39a5.38,5.38,0,0,0,0,10.71,4.85,4.85,0,0,0,4.32-2.86h-2.14a2.88,2.88,0,0,1-2.18,1,3.27,3.27,0,0,1-3-3.08h7.92c0-.15,0-0.3,0-0.46A5.14,5.14,0,0,0,117.3,173.39Zm-2.84,4a2.94,2.94,0,0,1,5.69,0h-5.69Z" transform="translate(-99.92 -169.1)"/><path class="cls-1" d="M204.25,173.39a5.38,5.38,0,0,0,0,10.71,4.85,4.85,0,0,0,4.32-2.86h-2.14a2.88,2.88,0,0,1-2.18,1,3.27,3.27,0,0,1-3-3.08h7.92c0-.15,0-0.3,0-0.46A5.14,5.14,0,0,0,204.25,173.39Zm-2.84,4a2.94,2.94,0,0,1,5.69,0H201.4Z" transform="translate(-99.92 -169.1)"/><path class="cls-1" d="M243.17,173.39a5.38,5.38,0,0,0,0,10.71,4.85,4.85,0,0,0,4.32-2.86h-2.14a2.88,2.88,0,0,1-2.18,1,3.27,3.27,0,0,1-3-3.08H248c0-.15,0-0.3,0-0.46A5.14,5.14,0,0,0,243.17,173.39Zm-2.84,4a2.94,2.94,0,0,1,5.69,0h-5.69Z" transform="translate(-99.92 -169.1)"/><rect class="cls-1" x="70.5" y="13.18" width="10.21" height="1.81"/><path class="cls-1" d="M253.06,173.88h-1.81v10.21h1.81V178.2c0-2,1.38-2.51,3.08-2.51v-1.81a5.78,5.78,0,0,0-3.08.78v-0.78Z" transform="translate(-99.92 -169.1)"/><path class="cls-1" d="M164.06,179.77V175.7h2.62v-1.81h-2.62V169.1h-1.81v4.78h-1.74v1.81h1.74v4.08c0,3,2.19,4.32,4.89,4.32v-1.81C165.44,182.28,164.06,181.73,164.06,179.77Z" transform="translate(-99.92 -169.1)"/><polygon class="cls-1" points="41.59 4.78 41.59 6.59 44.21 6.59 44.21 14.99 46.02 14.99 46.02 6.59 46.02 4.78 44.21 4.78 41.59 4.78"/><rect class="cls-1" x="43.62" width="2.4" height="2.4"/></svg>