<svg id="Layer_1" data-name="Layer 1" xmlns="http://www.w3.org/2000/svg" viewBox="0 0 28.46 25"><defs><style>.cls-1{fill:#fff;}</style></defs><title>wind</title><g id="_Group_" data-name="&lt;Group&gt;"><path id="_Path_" data-name="&lt;Path&gt;" class="cls-1" d="M-60.82,191.46a5,5,0,0,0-5.38,5c0,0.09,0,.19,0,0.28h2.06c0-.09,0-0.19,0-0.28a2.94,2.94,0,0,1,3.28-2.92,3,3,0,0,1,2.59,2.59,2.94,2.94,0,0,1-2.92,3.28h-9.85v2.06h9.85a5,5,0,0,0,5-5.38A5,5,0,0,0-60.82,191.46Z" transform="translate(73.82 -191.45)"/><path id="_Path_2" data-name="&lt;Path&gt;" class="cls-1" d="M-55.12,216.45a5,5,0,0,1-5-5c0-.09,0-0.19,0-0.28H-58c0,0.09,0,.19,0,0.28a2.94,2.94,0,0,0,2.94,2.94,2.94,2.94,0,0,0,2.94-2.94,2.94,2.94,0,0,0-2.94-2.94H-68.57v-2.06h13.45a5,5,0,0,1,5,5A5,5,0,0,1-55.12,216.45Z" transform="translate(73.82 -191.45)"/><path id="_Path_3" data-name="&lt;Path&gt;" class="cls-1" d="M-50.36,195a5,5,0,0,0-5,5c0,0.09,0,.19,0,0.28h2.06c0-.09,0-0.19,0-0.28a2.94,2.94,0,0,1,2.94-2.94A2.94,2.94,0,0,1-47.42,200a2.94,2.94,0,0,1-2.83,2.94H-73.82V205h23.47a5,5,0,0,0,5-5A5,5,0,0,0-50.36,195Z" transform="translate(73.82 -191.45)"/></g></svg>